<?xml version="1.0" encoding="iso-8859-1"?>
<!-- Generator: Adobe Illustrator 19.0.0, SVG Export Plug-In . SVG Version: 6.00 Build 0)  -->
<svg version="1.1" id="Capa_1" xmlns="http://www.w3.org/2000/svg" xmlns:xlink="http://www.w3.org/1999/xlink" x="0px" y="0px"
	 viewBox="0 0 512.001 512.001" style="enable-background:new 0 0 512.001 512.001;" xml:space="preserve">
<circle style="fill:#005ECE;" cx="256.001" cy="256" r="256"/>
<path style="fill:#00479B;" d="M512,258.679l-92.105-92.105l-0.029,0.007c-12.94-13.48-31.128-21.885-51.29-21.885l0,0l0,0
	c-10.359,0-20.187,2.238-29.063,6.221v-17.351h-77.913l-22.261-22.261h-33.391h-33.391v22.261H72.383v22.261l0,0l11.13,11.13
	v166.957l58.221,58.221l-2.57,8.562L250.397,511.93c1.874,0.04,3.752,0.071,5.636,0.071C396.524,512,510.561,398.828,512,258.679z"
	/>
<polygon style="fill:#ACABB1;" points="217.044,289.391 239.305,289.391 272.697,400.696 250.436,400.696 "/>
<g>
	<polygon style="fill:#C6C5CA;" points="194.784,289.391 172.523,289.391 139.131,400.696 161.392,400.696 	"/>
	<rect x="172.521" y="111.3" style="fill:#C6C5CA;" width="66.783" height="33.391"/>
</g>
<rect x="205.911" y="111.3" style="fill:#ACABB1;" width="33.391" height="33.391"/>
<path style="fill:#FFFFFF;" d="M328.349,144.696H83.479v189.217h244.87V144.696z"/>
<rect x="205.911" y="144.7" style="fill:#D8D7DA;" width="122.44" height="189.22"/>
<path style="fill:#FFDA44;" d="M72.349,133.565v22.261h267.13v-22.261H72.349z"/>
<rect x="205.911" y="133.56" style="fill:#FFA733;" width="133.56" height="22.261"/>
<g>
	<circle style="fill:#6DC82A;" cx="128.001" cy="228.17" r="16.696"/>
	<circle style="fill:#6DC82A;" cx="183.651" cy="194.78" r="16.696"/>
	<circle style="fill:#6DC82A;" cx="261.561" cy="272.7" r="16.696"/>
	<polygon style="fill:#6DC82A;" points="263.533,281.732 182.832,198.085 125.278,237.853 119.593,229.625 184.132,185.031 
		270.73,274.789 	"/>
</g>
<path style="fill:#FFFFFF;" d="M422.271,329.189c0-23.564-19.102-42.666-42.666-42.666h-22.124c-8.268,0-15.981,2.359-22.518,6.43
	v54.015h87.308L422.271,329.189L422.271,329.189z"/>
<path style="fill:#E1E3FA;" d="M379.603,286.523h-11.061v60.445h53.729V329.19C422.271,305.625,403.168,286.523,379.603,286.523z"/>
<path style="fill:#1D1D1F;" d="M334.961,333.535v40.297v13.432c0,7.387,6.045,13.432,13.432,13.432s13.432-6.045,13.432-13.432
	v-13.432h13.432v13.432c0,7.387,6.045,13.432,13.432,13.432s13.432-6.045,13.432-13.432v-13.432v-40.297H334.961z"/>
<path d="M368.542,333.535v40.297h6.716v13.432c0,7.387,6.045,13.432,13.432,13.432s13.432-6.045,13.432-13.432v-13.432v-40.297
	H368.542z"/>
<path style="fill:#FFDAAA;" d="M282.343,300.557L282.343,300.557c0-6.142,5.024-11.166,11.166-11.166h14.888v22.332h-14.888
	C287.368,311.725,282.343,306.699,282.343,300.557z"/>
<path style="fill:#FFC477;" d="M412.197,360.399L412.197,360.399c-5.541,0-10.074-4.533-10.074-10.074v-13.432h20.148v13.432
	C422.271,355.866,417.737,360.399,412.197,360.399z"/>
<polygon points="360.655,329.584 368.542,340.251 368.542,340.34 368.542,340.34 368.542,340.251 368.542,340.251 376.429,329.584 
	372.675,300.472 381.974,286.523 355.11,286.523 364.409,300.472 "/>
<path style="fill:#3E3D42;" d="M386.738,287.129l-18.196,49.567l-18.196-49.567c-2.849,0.48-5.601,1.248-8.229,2.263h-44.886v22.332
	h37.73v35.243v13.432h67.16v-13.432h20.148v-17.778C422.271,308.057,406.904,290.524,386.738,287.129z"/>
<path style="fill:#2D2D30;" d="M386.738,287.129l-18.196,49.567v23.703h33.581v-13.432h20.148v-17.778
	C422.271,308.057,406.904,290.524,386.738,287.129z"/>
<path style="fill:#1D1D1F;" d="M368.542,144.696L368.542,144.696c-11.404,0-22.177,2.689-31.731,7.46
	c-1.242-0.225-2.519-0.348-3.826-0.348c-11.78,0-21.331,9.549-21.334,21.329c-0.072,0.096-0.144,0.193-0.215,0.288
	c-11.956,1.818-21.119,12.141-21.119,24.605c0,6.782,2.716,12.927,7.116,17.417c-0.001,0.12-0.004,0.24-0.004,0.362v28.445h142.224
	v-28.445C439.653,176.533,407.816,144.696,368.542,144.696z"/>
<path d="M368.542,144.696L368.542,144.696v99.555h71.111v-28.445C439.653,176.533,407.816,144.696,368.542,144.696z"/>
<path style="fill:#FFC477;" d="M325.876,258.473h-15.645c-7.04,0-12.8-5.76-12.8-12.8v-2.845c0-7.04,5.76-12.8,12.8-12.8h15.645
	V258.473z"/>
<path style="fill:#FFB655;" d="M411.208,258.473h15.645c7.04,0,12.8-5.76,12.8-12.8v-2.845c0-7.04-5.76-12.8-12.8-12.8h-15.645
	V258.473z"/>
<path style="fill:#FFDAAA;" d="M392.135,207.841c-2.259-1.694-4.391-3.48-6.399-5.337c-20.284,13.172-44.149,20.413-68.865,20.413
	h-11.933c-0.258,2.335-0.395,4.707-0.395,7.111c0,35.346,28.654,64,64,64s64-28.654,64-64c0-2.425-0.139-4.817-0.402-7.171
	C419.035,222.327,404.79,217.334,392.135,207.841z"/>
<path style="fill:#FFC477;" d="M432.14,222.857c-13.104-0.53-27.349-5.524-40.005-15.016c-2.259-1.694-4.391-3.48-6.399-5.337
	c-5.486,3.563-11.237,6.687-17.193,9.356v82.168c35.346,0,64-28.654,64-64C432.542,227.604,432.403,225.212,432.14,222.857z"/>
<circle cx="335.061" cy="239.21" r="9.185"/>
<circle cx="402.021" cy="239.21" r="9.185"/>
<path style="fill:#F072AE;" d="M368.542,279.807c11.782,0,21.334-9.551,21.334-21.334H347.21
	C347.208,270.256,356.76,279.807,368.542,279.807z"/>
<path style="fill:#ED539D;" d="M368.542,258.473v21.334c11.782,0,21.334-9.551,21.334-21.334L368.542,258.473L368.542,258.473z"/>
<g>
</g>
<g>
</g>
<g>
</g>
<g>
</g>
<g>
</g>
<g>
</g>
<g>
</g>
<g>
</g>
<g>
</g>
<g>
</g>
<g>
</g>
<g>
</g>
<g>
</g>
<g>
</g>
<g>
</g>
</svg>
